<svg width="133" height="25" viewBox="0 0 133 25" fill="none" xmlns="http://www.w3.org/2000/svg">
<path d="M0.96875 24V3.0625H15.25V6.96875H5.3125V24H0.96875ZM3.28125 16.1562V12.25H13.5312V16.1562H3.28125ZM22.7188 5.375C21.9688 5.375 21.3229 5.10417 20.7812 4.5625C20.2396 4.02083 19.9688 3.39583 19.9688 2.6875C19.9688 1.9375 20.2396 1.30208 20.7812 0.78125C21.3229 0.260417 21.9688 0 22.7188 0C23.2188 0 23.6771 0.125 24.0938 0.375C24.5104 0.604167 24.8438 0.927083 25.0938 1.34375C25.3438 1.73958 25.4688 2.1875 25.4688 2.6875C25.4688 3.14583 25.3438 3.58333 25.0938 4C24.8438 4.41667 24.5104 4.75 24.0938 5C23.6771 5.25 23.2188 5.375 22.7188 5.375ZM21.125 24V8.21875H25.0938V24H21.125ZM18.5938 11.5938V8.21875H25.0938V11.5938H18.5938ZM40.4375 24L40.4062 14.8438C40.4062 13.7812 40.1458 12.9896 39.625 12.4688C39.125 11.9479 38.4271 11.6875 37.5312 11.6875C36.8229 11.6875 36.1667 11.9167 35.5625 12.375C34.9583 12.8333 34.4271 13.375 33.9688 14V10.4688C34.3021 10.0312 34.6979 9.61458 35.1562 9.21875C35.6354 8.80208 36.1771 8.46875 36.7812 8.21875C37.3854 7.94792 38.0417 7.8125 38.75 7.8125C39.8333 7.8125 40.8021 8.05208 41.6562 8.53125C42.5104 9.01042 43.1771 9.73958 43.6562 10.7188C44.1562 11.6771 44.4062 12.875 44.4062 14.3125V24H40.4375ZM30 24V8.21875H33.9688V24H30ZM54 24V3.0625H58.3438V24H54ZM47.5625 6.8125V3.0625H64.7812V6.8125H47.5625ZM68.2188 24V8.21875H72.1875V24H68.2188ZM72.1875 15.1875V11.1875C72.7292 10.25 73.3646 9.46875 74.0938 8.84375C74.8438 8.21875 75.6875 7.90625 76.625 7.90625C77.2083 7.90625 77.7188 8 78.1562 8.1875V12.6562C77.8438 12.4688 77.5104 12.3333 77.1562 12.25C76.8229 12.1458 76.4583 12.0938 76.0625 12.0938C75.1667 12.0938 74.4062 12.3958 73.7812 13C73.1771 13.5833 72.6458 14.3125 72.1875 15.1875ZM87.1875 24.4688C85.9375 24.4688 84.7708 24.1458 83.6875 23.5C82.625 22.8542 81.7604 21.9167 81.0938 20.6875C80.4479 19.4583 80.125 17.9688 80.125 16.2188C80.125 14.4479 80.4479 12.9375 81.0938 11.6875C81.7604 10.4375 82.6458 9.47917 83.75 8.8125C84.875 8.14583 86.1146 7.8125 87.4688 7.8125C88.3438 7.8125 89.2083 8.01042 90.0625 8.40625C90.9375 8.80208 91.6667 9.33333 92.25 10V8.21875H96.2188V24H92.25V21.3438C91.7917 22.1979 91.125 22.9375 90.25 23.5625C89.375 24.1667 88.3542 24.4688 87.1875 24.4688ZM88.1875 20.5C88.8958 20.5 89.5521 20.3125 90.1562 19.9375C90.7812 19.5625 91.2917 19.0312 91.6875 18.3438C92.0833 17.6562 92.2708 16.8438 92.25 15.9062V13.6562C91.6875 13.0521 91.0729 12.5729 90.4062 12.2188C89.7604 11.8646 89.0521 11.6875 88.2812 11.6875C87.4479 11.6875 86.7292 11.9062 86.125 12.3438C85.5417 12.7604 85.0833 13.3125 84.75 14C84.4167 14.6875 84.25 15.4271 84.25 16.2188C84.25 16.9896 84.4167 17.7083 84.75 18.375C85.0833 19.0208 85.5417 19.5417 86.125 19.9375C86.7292 20.3125 87.4167 20.5 88.1875 20.5ZM108.281 24.4688C107.094 24.4688 105.99 24.25 104.969 23.8125C103.969 23.375 103.094 22.7708 102.344 22C101.594 21.2292 101.01 20.3438 100.594 19.3438C100.198 18.3438 100 17.2917 100 16.1875C100 15.0833 100.198 14.0312 100.594 13.0312C101.01 12.0312 101.594 11.1458 102.344 10.375C103.094 9.58333 103.969 8.95833 104.969 8.5C105.99 8.04167 107.094 7.8125 108.281 7.8125C109.469 7.8125 110.427 8 111.156 8.375C111.906 8.75 112.5 9.11458 112.938 9.46875V13.125C112.396 12.7292 111.781 12.3958 111.094 12.125C110.427 11.8542 109.604 11.7188 108.625 11.7188C107.833 11.7188 107.094 11.9167 106.406 12.3125C105.74 12.7083 105.208 13.2396 104.812 13.9062C104.417 14.5729 104.219 15.3333 104.219 16.1875C104.219 17.0417 104.406 17.8021 104.781 18.4688C105.156 19.1354 105.677 19.6667 106.344 20.0625C107.031 20.4375 107.792 20.625 108.625 20.625C109.604 20.625 110.427 20.4896 111.094 20.2188C111.781 19.9479 112.396 19.625 112.938 19.25V22.875C112.5 23.25 111.906 23.6146 111.156 23.9688C110.427 24.3021 109.469 24.4688 108.281 24.4688ZM119.688 20.2812V15.75L126.875 8.21875H131.688L119.688 20.2812ZM116.469 24V1.5H120.438V24H116.469ZM127.031 24L121.531 16.5312L124.031 13.8125L132.031 24H127.031Z" fill="#F5F5F5"/>
</svg>
